<svg version="1.1" id="Layer_1" xmlns="http://www.w3.org/2000/svg" xmlns:xlink="http://www.w3.org/1999/xlink" x="0px" y="0px"
	 viewBox="0 0 127.6 33.2" style="enable-background:new 0 0 127.6 33.2;" xml:space="preserve">
<style type="text/css">
	.st0{enable-background:new    ;}
	.st1{fill:#22213F;}
	.st2{fill:#7131FF;}
</style>
<g class="st0">
	<path class="st1" d="M54.2,11.3v19.1h-4v-2.9c-1.3,2.2-4,3.3-6.6,3.3c-5.2,0-9.5-3.9-9.5-10c0-6.1,4.3-10,9.5-10
		c2.7,0,5.4,1.1,6.6,3.2v-2.8H54.2z M50.1,20.8c0-3.9-3.2-6.1-6.1-6.1c-3.3,0-5.9,2.5-5.9,6.1c0,3.6,2.7,6.2,5.9,6.2
		C47.3,27.1,50.1,24.7,50.1,20.8z"/>
	<path class="st1" d="M73.9,14.6L62.6,26.7h11.3v3.8H57v-3.3l11-12.1H57.6v-3.8h16.3V14.6z"/>
	<path class="st1" d="M94.7,11.3v19.1h-4v-2.9c-1.1,2.3-4.2,3.3-6.2,3.3c-4.8,0-7.7-3.2-7.7-8.6V11.3h4V22c0,3.1,1.9,4.9,4.3,4.9
		c2.5,0,5.5-1.4,5.5-5.3V11.3H94.7z"/>
	<path class="st1" d="M98.8,1h4v29.5h-4V1z"/>
	<path class="st1" d="M105.8,20.8c0-6.1,4.6-9.9,10-9.9s10.1,3.9,10.1,9.9c0,6.1-4.6,10-10.1,10S105.8,26.9,105.8,20.8z M121.9,20.8
		c0-3.7-2.8-6.2-6.1-6.2c-3.3,0-6,2.5-6,6.2c0,3.7,2.7,6.2,6,6.2C119.1,27.1,121.9,24.6,121.9,20.8z"/>
</g>
<g id="Group_11952" transform="translate(123.73 452.642)">
	<g id="Group_11951" transform="translate(0 0)">
		<g id="Ellipse_4">
			<circle class="st2" cx="-117.1" cy="-425.3" r="4.9"/>
		</g>
		<g id="Rectangle_307">
			<path class="st2" d="M-111.9-442.3L-111.9-442.3c2.4-1.4,5.5-0.6,6.9,1.8l7.2,12.5c1.4,2.4,0.6,5.5-1.8,6.9l0,0
				c-2.4,1.4-5.5,0.6-6.9-1.8l-7.2-12.5C-115.1-437.8-114.3-440.9-111.9-442.3z"/>
		</g>
	</g>
</g>
</svg>